<svg xmlns="http://www.w3.org/2000/svg" xmlns:xlink="http://www.w3.org/1999/xlink" version="1.1" x="0px" y="0px"
    width="1em" height="1em" viewBox="0 0 35 35" enable-background="new 0 0 35 35" xml:space="preserve">
    <g>
        <rect x="21.5" y="1.5" width="12" height="12" />
        <rect x="1.5" y="21.5" width="12" height="12" />
        <path d="M19.5,8.5v-2h-13v8h-4c6.5,6.5,0.7,0.7,5,5l5-5h-4v-6H19.5z" />
        <path d="M29.1,17.2C29.2,17.2,29.2,17.3,29.1,17.2C29.2,17.2,29.1,17.2,29.1,17.2z" />
        <path d="M15.5,26.5v2h13v-8h4c-2.8-2.8-3.3-3.3-3.3-3.3l0,0c-0.2-0.2-0.6-0.6-1.7-1.7l-5,5h4v6H15.5z" />
    </g>
</svg>