<?xml version="1.0" encoding="UTF-8" standalone="no"?>
<svg
   xmlns:dc="http://purl.org/dc/elements/1.1/"
   xmlns:cc="http://creativecommons.org/ns#"
   xmlns:rdf="http://www.w3.org/1999/02/22-rdf-syntax-ns#"
   xmlns:svg="http://www.w3.org/2000/svg"
   xmlns="http://www.w3.org/2000/svg"
   xmlns:sodipodi="http://sodipodi.sourceforge.net/DTD/sodipodi-0.dtd"
   xmlns:inkscape="http://www.inkscape.org/namespaces/inkscape"
   inkscape:version="1.0rc1 (09960d6f05, 2020-04-09)"
   sodipodi:docname="favicon.svg"
   id="svg14"
   xml:space="preserve"
   enable-background="new 0 0 35 35"
   viewBox="0 0 35 35"
   y="0px"
   x="0px"
   version="1.1"><metadata
     id="metadata20"><rdf:RDF><cc:Work
         rdf:about=""><dc:format>image/svg+xml</dc:format><dc:type
           rdf:resource="http://purl.org/dc/dcmitype/StillImage" /><dc:title></dc:title></cc:Work></rdf:RDF></metadata><defs
     id="defs18" /><sodipodi:namedview
     inkscape:current-layer="svg14"
     inkscape:window-maximized="1"
     inkscape:window-y="-6"
     inkscape:window-x="2728"
     inkscape:cy="17.5"
     inkscape:cx="17.5"
     inkscape:zoom="6.7428571"
     showgrid="false"
     id="namedview16"
     inkscape:window-height="1377"
     inkscape:window-width="2560"
     inkscape:pageshadow="2"
     inkscape:pageopacity="1"
     guidetolerance="10"
     gridtolerance="10"
     objecttolerance="10"
     borderopacity="1"
     bordercolor="#666666"
     pagecolor="#ffffff" /><g
     id="g12"><rect
       id="rect2"
       height="12"
       width="12"
       y="1.5"
       x="21.5" /><rect
       id="rect4"
       height="12"
       width="12"
       y="21.5"
       x="1.5" /><path
       id="path6"
       d="M19.5,8.5v-2h-13v8h-4c6.5,6.5,0.7,0.7,5,5l5-5h-4v-6H19.5z" /><path
       id="path8"
       d="M29.1,17.2C29.2,17.2,29.2,17.3,29.1,17.2C29.2,17.2,29.1,17.2,29.1,17.2z" /><path
       id="path10"
       d="M15.5,26.5v2h13v-8h4c-2.8-2.8-3.3-3.3-3.3-3.3l0,0c-0.2-0.2-0.6-0.6-1.7-1.7l-5,5h4v6H15.5z" /></g></svg>
