<svg xmlns="http://www.w3.org/2000/svg" class="d-none">
    <symbol id="info" xmlns="http://www.w3.org/2000/svg" class="bi bi-info-circle-fill" viewBox="0 0 16 16">
        <path
            d="M8 16A8 8 0 1 0 8 0a8 8 0 0 0 0 16zm.93-9.412-1 4.705c-.07.34.029.533.304.533.194 0 .487-.07.686-.246l-.088.416c-.287.346-.92.598-1.465.598-.703 0-1.002-.422-.808-1.319l.738-3.468c.064-.293.006-.399-.287-.47l-.451-.081.082-.381 2.29-.287zM8 5.5a1 1 0 1 1 0-2 1 1 0 0 1 0 2z" />
    </symbol>

    <symbol id="success" xmlns="http://www.w3.org/2000/svg" class="bi bi-check-circle-fill" viewBox="0 0 16 16">
        <path
            d="M16 8A8 8 0 1 1 0 8a8 8 0 0 1 16 0zm-3.97-3.03a.75.75 0 0 0-1.08.022L7.477 9.417 5.384 7.323a.75.75 0 0 0-1.06 1.06L6.97 11.03a.75.75 0 0 0 1.079-.02l3.992-4.99a.75.75 0 0 0-.01-1.05z" />
    </symbol>

    <symbol id="warning" xmlns="http://www.w3.org/2000/svg" class="bi bi-exclamation-triangle-fill" viewBox="0 0 16 16">
        <path
            d="M8.982 1.566a1.13 1.13 0 0 0-1.96 0L.165 13.233c-.457.778.091 1.767.98 1.767h13.713c.889 0 1.438-.99.98-1.767L8.982 1.566zM8 5c.535 0 .954.462.9.995l-.35 3.507a.552.552 0 0 1-1.1 0L7.1 5.995A.905.905 0 0 1 8 5zm.002 6a1 1 0 1 1 0 2 1 1 0 0 1 0-2z" />
    </symbol>

    <symbol id="error" xmlns="http://www.w3.org/2000/svg" class="bi bi-exclamation-octagon-fill" viewBox="0 0 16 16">
        <path
            d="M11.46.146A.5.5 0 0 0 11.107 0H4.893a.5.5 0 0 0-.353.146L.146 4.54A.5.5 0 0 0 0 4.893v6.214a.5.5 0 0 0 .146.353l4.394 4.394a.5.5 0 0 0 .353.146h6.214a.5.5 0 0 0 .353-.146l4.394-4.394a.5.5 0 0 0 .146-.353V4.893a.5.5 0 0 0-.146-.353L11.46.146zM8 4c.535 0 .954.462.9.995l-.35 3.507a.552.552 0 0 1-1.1 0L7.1 4.995A.905.905 0 0 1 8 4zm.002 6a1 1 0 1 1 0 2 1 1 0 0 1 0-2z" />
    </symbol>

    <symbol id="bug" xmlns="http://www.w3.org/2000/svg" class="bi bi-bug-fill" viewBox="0 0 16 16">
        <path
            d="M4.978.855a.5.5 0 1 0-.956.29l.41 1.352A4.985 4.985 0 0 0 3 6h10a4.985 4.985 0 0 0-1.432-3.503l.41-1.352a.5.5 0 1 0-.956-.29l-.291.956A4.978 4.978 0 0 0 8 1a4.979 4.979 0 0 0-2.731.811l-.29-.956z" />
        <path
            d="M13 6v1H8.5v8.975A5 5 0 0 0 13 11h.5a.5.5 0 0 1 .5.5v.5a.5.5 0 1 0 1 0v-.5a1.5 1.5 0 0 0-1.5-1.5H13V9h1.5a.5.5 0 0 0 0-1H13V7h.5A1.5 1.5 0 0 0 15 5.5V5a.5.5 0 0 0-1 0v.5a.5.5 0 0 1-.5.5H13zm-5.5 9.975V7H3V6h-.5a.5.5 0 0 1-.5-.5V5a.5.5 0 0 0-1 0v.5A1.5 1.5 0 0 0 2.5 7H3v1H1.5a.5.5 0 0 0 0 1H3v1h-.5A1.5 1.5 0 0 0 1 11.5v.5a.5.5 0 1 0 1 0v-.5a.5.5 0 0 1 .5-.5H3a5 5 0 0 0 4.5 4.975z" />
    </symbol>
</svg>